<svg width="47" height="27" viewBox="0 0 47 27" fill="none" xmlns="http://www.w3.org/2000/svg">
<rect width="47" height="27" rx="4" fill="#5851A7"/>
<path d="M18.8831 7.436H24.9851C26.0291 7.436 26.8391 7.73 27.4151 8.318C28.0031 8.906 28.2971 9.686 28.2971 10.658C28.2971 11.138 28.2311 11.546 28.0991 11.882C27.9791 12.218 27.8111 12.494 27.5951 12.71C27.3911 12.926 27.1451 13.088 26.8571 13.196C26.5811 13.292 26.2811 13.346 25.9571 13.358V13.466C26.2571 13.466 26.5691 13.52 26.8931 13.628C27.2291 13.736 27.5351 13.91 27.8111 14.15C28.0871 14.378 28.3151 14.678 28.4951 15.05C28.6871 15.422 28.7831 15.878 28.7831 16.418C28.7831 16.91 28.6991 17.378 28.5311 17.822C28.3751 18.254 28.1531 18.632 27.8651 18.956C27.5771 19.28 27.2351 19.538 26.8391 19.73C26.4431 19.91 26.0111 20 25.5431 20H18.8831V7.436ZM21.6191 17.696H24.7691C25.1291 17.696 25.4111 17.6 25.6151 17.408C25.8311 17.204 25.9391 16.922 25.9391 16.562V15.95C25.9391 15.59 25.8311 15.314 25.6151 15.122C25.4111 14.918 25.1291 14.816 24.7691 14.816H21.6191V17.696ZM21.6191 12.584H24.3371C24.6971 12.584 24.9791 12.482 25.1831 12.278C25.3871 12.074 25.4891 11.792 25.4891 11.432V10.892C25.4891 10.532 25.3871 10.25 25.1831 10.046C24.9791 9.842 24.6971 9.74 24.3371 9.74H21.6191V12.584Z" fill="#ABA4FF"/>
</svg>
