<svg width="47" height="27" viewBox="0 0 47 27" fill="none" xmlns="http://www.w3.org/2000/svg">
<rect width="47" height="27" rx="4" fill="#63384F"/>
<path d="M24.0997 20.216C23.2477 20.216 22.4797 20.084 21.7957 19.82C21.1117 19.544 20.5297 19.142 20.0497 18.614C19.5697 18.074 19.1977 17.408 18.9337 16.616C18.6697 15.812 18.5377 14.876 18.5377 13.808C18.5377 12.752 18.6697 11.816 18.9337 11C19.1977 10.172 19.5697 9.482 20.0497 8.93C20.5297 8.366 21.1117 7.94 21.7957 7.652C22.4797 7.364 23.2477 7.22 24.0997 7.22C25.2637 7.22 26.2237 7.46 26.9797 7.94C27.7357 8.408 28.3417 9.152 28.7977 10.172L26.4397 11.396C26.2717 10.868 26.0077 10.448 25.6477 10.136C25.2997 9.812 24.7837 9.65 24.0997 9.65C23.2957 9.65 22.6477 9.914 22.1557 10.442C21.6757 10.958 21.4357 11.714 21.4357 12.71V14.726C21.4357 15.722 21.6757 16.484 22.1557 17.012C22.6477 17.528 23.2957 17.786 24.0997 17.786C24.7717 17.786 25.3057 17.606 25.7017 17.246C26.1097 16.874 26.4097 16.43 26.6017 15.914L28.8337 17.21C28.3657 18.17 27.7477 18.914 26.9797 19.442C26.2237 19.958 25.2637 20.216 24.0997 20.216Z" fill="#FF95CF"/>
</svg>
