<svg width="47" height="27" viewBox="0 0 47 27" fill="none" xmlns="http://www.w3.org/2000/svg">
<rect width="47" height="27" rx="4" fill="#7C3D3D"/>
<path d="M18.6106 7.436H23.3446C24.1726 7.436 24.9286 7.568 25.6126 7.832C26.2966 8.096 26.8786 8.492 27.3586 9.02C27.8386 9.536 28.2106 10.19 28.4746 10.982C28.7386 11.762 28.8706 12.674 28.8706 13.718C28.8706 14.762 28.7386 15.68 28.4746 16.472C28.2106 17.252 27.8386 17.906 27.3586 18.434C26.8786 18.95 26.2966 19.34 25.6126 19.604C24.9286 19.868 24.1726 20 23.3446 20H18.6106V7.436ZM23.3446 17.57C24.1606 17.57 24.8026 17.342 25.2706 16.886C25.7386 16.43 25.9726 15.698 25.9726 14.69V12.746C25.9726 11.738 25.7386 11.006 25.2706 10.55C24.8026 10.094 24.1606 9.866 23.3446 9.866H21.3466V17.57H23.3446Z" fill="#FF6969"/>
</svg>
