<svg width="47" height="27" viewBox="0 0 47 27" fill="none" xmlns="http://www.w3.org/2000/svg">
<rect width="47" height="27" rx="4" fill="#548686"/>
<path d="M23.3378 20.216C22.2338 20.216 21.2978 20.03 20.5298 19.658C19.7618 19.274 19.1078 18.782 18.5678 18.182L20.3678 16.364C21.2198 17.324 22.2698 17.804 23.5178 17.804C24.1898 17.804 24.6878 17.666 25.0118 17.39C25.3358 17.114 25.4978 16.748 25.4978 16.292C25.4978 15.944 25.4018 15.656 25.2098 15.428C25.0178 15.188 24.6278 15.026 24.0398 14.942L22.7978 14.78C21.4658 14.612 20.4878 14.21 19.8638 13.574C19.2518 12.938 18.9458 12.092 18.9458 11.036C18.9458 10.472 19.0538 9.956 19.2698 9.488C19.4858 9.02 19.7918 8.618 20.1878 8.282C20.5958 7.946 21.0878 7.688 21.6638 7.508C22.2518 7.316 22.9178 7.22 23.6618 7.22C24.6098 7.22 25.4438 7.37 26.1638 7.67C26.8838 7.97 27.5018 8.408 28.0178 8.984L26.1998 10.82C25.8998 10.472 25.5338 10.19 25.1018 9.974C24.6818 9.746 24.1478 9.632 23.4998 9.632C22.8878 9.632 22.4318 9.74 22.1318 9.956C21.8318 10.172 21.6818 10.472 21.6818 10.856C21.6818 11.288 21.7958 11.6 22.0238 11.792C22.2638 11.984 22.6478 12.122 23.1758 12.206L24.4178 12.404C25.7138 12.608 26.6738 13.01 27.2978 13.61C27.9218 14.198 28.2338 15.038 28.2338 16.13C28.2338 16.73 28.1258 17.282 27.9098 17.786C27.6938 18.29 27.3758 18.722 26.9558 19.082C26.5478 19.442 26.0378 19.724 25.4258 19.928C24.8138 20.12 24.1178 20.216 23.3378 20.216Z" fill="#CDE7E7"/>
</svg>
