<svg width="47" height="27" viewBox="0 0 47 27" fill="none" xmlns="http://www.w3.org/2000/svg">
<rect width="47" height="27" rx="4" fill="#665828"/>
<path d="M17.8446 20.216C16.7406 20.216 15.8046 20.03 15.0366 19.658C14.2686 19.274 13.6146 18.782 13.0746 18.182L14.8746 16.364C15.7266 17.324 16.7766 17.804 18.0246 17.804C18.6966 17.804 19.1946 17.666 19.5186 17.39C19.8426 17.114 20.0046 16.748 20.0046 16.292C20.0046 15.944 19.9086 15.656 19.7166 15.428C19.5246 15.188 19.1346 15.026 18.5466 14.942L17.3046 14.78C15.9726 14.612 14.9946 14.21 14.3706 13.574C13.7586 12.938 13.4526 12.092 13.4526 11.036C13.4526 10.472 13.5606 9.956 13.7766 9.488C13.9926 9.02 14.2986 8.618 14.6946 8.282C15.1026 7.946 15.5946 7.688 16.1706 7.508C16.7586 7.316 17.4246 7.22 18.1686 7.22C19.1166 7.22 19.9506 7.37 20.6706 7.67C21.3906 7.97 22.0086 8.408 22.5246 8.984L20.7066 10.82C20.4066 10.472 20.0406 10.19 19.6086 9.974C19.1886 9.746 18.6546 9.632 18.0066 9.632C17.3946 9.632 16.9386 9.74 16.6386 9.956C16.3386 10.172 16.1886 10.472 16.1886 10.856C16.1886 11.288 16.3026 11.6 16.5306 11.792C16.7706 11.984 17.1546 12.122 17.6826 12.206L18.9246 12.404C20.2206 12.608 21.1806 13.01 21.8046 13.61C22.4286 14.198 22.7406 15.038 22.7406 16.13C22.7406 16.73 22.6326 17.282 22.4166 17.786C22.2006 18.29 21.8826 18.722 21.4626 19.082C21.0546 19.442 20.5446 19.724 19.9326 19.928C19.3206 20.12 18.6246 20.216 17.8446 20.216ZM28.831 20.216C27.727 20.216 26.791 20.03 26.023 19.658C25.255 19.274 24.601 18.782 24.061 18.182L25.861 16.364C26.713 17.324 27.763 17.804 29.011 17.804C29.683 17.804 30.181 17.666 30.505 17.39C30.829 17.114 30.991 16.748 30.991 16.292C30.991 15.944 30.895 15.656 30.703 15.428C30.511 15.188 30.121 15.026 29.533 14.942L28.291 14.78C26.959 14.612 25.981 14.21 25.357 13.574C24.745 12.938 24.439 12.092 24.439 11.036C24.439 10.472 24.547 9.956 24.763 9.488C24.979 9.02 25.285 8.618 25.681 8.282C26.089 7.946 26.581 7.688 27.157 7.508C27.745 7.316 28.411 7.22 29.155 7.22C30.103 7.22 30.937 7.37 31.657 7.67C32.377 7.97 32.995 8.408 33.511 8.984L31.693 10.82C31.393 10.472 31.027 10.19 30.595 9.974C30.175 9.746 29.641 9.632 28.993 9.632C28.381 9.632 27.925 9.74 27.625 9.956C27.325 10.172 27.175 10.472 27.175 10.856C27.175 11.288 27.289 11.6 27.517 11.792C27.757 11.984 28.141 12.122 28.669 12.206L29.911 12.404C31.207 12.608 32.167 13.01 32.791 13.61C33.415 14.198 33.727 15.038 33.727 16.13C33.727 16.73 33.619 17.282 33.403 17.786C33.187 18.29 32.869 18.722 32.449 19.082C32.041 19.442 31.531 19.724 30.919 19.928C30.307 20.12 29.611 20.216 28.831 20.216Z" fill="#FFCC22"/>
</svg>
