<svg width="1920" height="801" viewBox="0 0 1920 801" fill="none" xmlns="http://www.w3.org/2000/svg">
<g clip-path="url(#clip0_1061_2307)">
<path d="M0 0H1920V966H0V0Z" fill="#344F7F"/>
<path d="M300.06 -83.7997L543.257 629.109L-195.739 483.27L300.06 -83.7997Z" fill="#2F4771"/>
<path d="M1579.09 -46.119L1738.92 71.7839L1556.9 151.252L1579.09 -46.119Z" fill="#2F4771"/>
<path d="M1658.84 136.3L1807.64 126.246L1741.94 260.135L1658.84 136.3Z" fill="#2F4771"/>
<path d="M1528.18 234.551L1616.65 172.941L1625.77 280.367L1528.18 234.551Z" fill="#2F4771"/>
<path d="M1452.93 252.017L1859.48 810.961L1172.14 883.575L1452.93 252.017Z" fill="#171717"/>
</g>
<path d="M1347.19 611.44H1353L1343.78 646H1337.97L1347.19 611.44ZM1361.25 611.44H1367.06L1357.84 646H1352.04L1361.25 611.44ZM1392.9 646.72C1389.7 646.72 1387.1 646 1385.1 644.56C1383.1 643.12 1381.88 641.096 1381.45 638.488L1387.36 637.576C1387.66 638.856 1388.33 639.864 1389.37 640.6C1390.41 641.336 1391.72 641.704 1393.31 641.704C1394.7 641.704 1395.77 641.432 1396.52 640.888C1397.29 640.328 1397.68 639.568 1397.68 638.608C1397.68 638.016 1397.53 637.544 1397.24 637.192C1396.97 636.824 1396.36 636.472 1395.42 636.136C1394.48 635.8 1393.03 635.376 1391.08 634.864C1388.9 634.288 1387.17 633.672 1385.89 633.016C1384.61 632.344 1383.69 631.552 1383.13 630.64C1382.57 629.728 1382.29 628.624 1382.29 627.328C1382.29 625.712 1382.72 624.304 1383.56 623.104C1384.41 621.904 1385.6 620.984 1387.12 620.344C1388.64 619.688 1390.43 619.36 1392.49 619.36C1394.51 619.36 1396.29 619.672 1397.84 620.296C1399.41 620.92 1400.68 621.808 1401.64 622.96C1402.6 624.112 1403.19 625.464 1403.41 627.016L1397.51 628.072C1397.36 626.968 1396.86 626.096 1396 625.456C1395.15 624.816 1394.01 624.456 1392.59 624.376C1391.23 624.296 1390.13 624.504 1389.3 625C1388.47 625.48 1388.05 626.16 1388.05 627.04C1388.05 627.536 1388.22 627.96 1388.56 628.312C1388.89 628.664 1389.56 629.016 1390.57 629.368C1391.6 629.72 1393.12 630.152 1395.13 630.664C1397.2 631.192 1398.84 631.8 1400.08 632.488C1401.32 633.16 1402.22 633.968 1402.76 634.912C1403.32 635.856 1403.6 637 1403.6 638.344C1403.6 640.952 1402.65 643 1400.75 644.488C1398.86 645.976 1396.24 646.72 1392.9 646.72ZM1416.11 646.72C1414.24 646.72 1412.65 646.368 1411.36 645.664C1410.06 644.944 1409.08 643.992 1408.4 642.808C1407.75 641.624 1407.42 640.32 1407.42 638.896C1407.42 637.648 1407.63 636.528 1408.04 635.536C1408.46 634.528 1409.1 633.664 1409.96 632.944C1410.83 632.208 1411.95 631.608 1413.32 631.144C1414.36 630.808 1415.58 630.504 1416.97 630.232C1418.38 629.96 1419.9 629.712 1421.53 629.488C1423.18 629.248 1424.9 628.992 1426.69 628.72L1424.63 629.896C1424.64 628.104 1424.24 626.784 1423.43 625.936C1422.61 625.088 1421.24 624.664 1419.3 624.664C1418.13 624.664 1417 624.936 1415.92 625.48C1414.83 626.024 1414.07 626.96 1413.64 628.288L1408.36 626.632C1409 624.44 1410.21 622.68 1412 621.352C1413.81 620.024 1416.24 619.36 1419.3 619.36C1421.6 619.36 1423.63 619.736 1425.37 620.488C1427.13 621.24 1428.44 622.472 1429.28 624.184C1429.75 625.096 1430.03 626.032 1430.12 626.992C1430.22 627.936 1430.27 628.968 1430.27 630.088V646H1425.2V640.384L1426.04 641.296C1424.88 643.168 1423.51 644.544 1421.94 645.424C1420.39 646.288 1418.44 646.72 1416.11 646.72ZM1417.26 642.112C1418.57 642.112 1419.69 641.88 1420.62 641.416C1421.55 640.952 1422.28 640.384 1422.83 639.712C1423.39 639.04 1423.76 638.408 1423.96 637.816C1424.26 637.08 1424.43 636.24 1424.46 635.296C1424.51 634.336 1424.53 633.56 1424.53 632.968L1426.31 633.496C1424.56 633.768 1423.07 634.008 1421.82 634.216C1420.57 634.424 1419.5 634.624 1418.6 634.816C1417.71 634.992 1416.92 635.192 1416.23 635.416C1415.56 635.656 1414.99 635.936 1414.52 636.256C1414.06 636.576 1413.7 636.944 1413.44 637.36C1413.2 637.776 1413.08 638.264 1413.08 638.824C1413.08 639.464 1413.24 640.032 1413.56 640.528C1413.88 641.008 1414.35 641.392 1414.96 641.68C1415.58 641.968 1416.35 642.112 1417.26 642.112ZM1436.47 646L1436.52 611.44H1442.37V632.56L1451.85 620.08H1459.08L1449.02 633.04L1459.94 646H1452.28L1442.37 633.52V646H1436.47ZM1472.06 646.744C1470.14 646.744 1468.56 646.424 1467.31 645.784C1466.06 645.144 1465.07 644.328 1464.34 643.336C1463.6 642.344 1463.06 641.288 1462.7 640.168C1462.35 639.048 1462.12 637.992 1462.01 637C1461.91 635.992 1461.86 635.176 1461.86 634.552V620.08H1467.72V632.56C1467.72 633.36 1467.78 634.264 1467.89 635.272C1468 636.264 1468.26 637.224 1468.66 638.152C1469.07 639.064 1469.68 639.816 1470.48 640.408C1471.3 641 1472.39 641.296 1473.77 641.296C1474.5 641.296 1475.23 641.176 1475.95 640.936C1476.67 640.696 1477.32 640.288 1477.9 639.712C1478.49 639.12 1478.96 638.312 1479.31 637.288C1479.66 636.264 1479.84 634.968 1479.84 633.4L1483.27 634.864C1483.27 637.072 1482.84 639.072 1481.98 640.864C1481.13 642.656 1479.87 644.088 1478.21 645.16C1476.54 646.216 1474.5 646.744 1472.06 646.744ZM1480.54 646V637.96H1479.84V620.08H1485.65V646H1480.54ZM1492.39 646V620.08H1497.5V626.392L1496.88 625.576C1497.2 624.712 1497.62 623.928 1498.15 623.224C1498.7 622.504 1499.34 621.912 1500.1 621.448C1500.74 621.016 1501.44 620.68 1502.21 620.44C1502.99 620.184 1503.79 620.032 1504.61 619.984C1505.42 619.92 1506.22 619.952 1506.98 620.08V625.48C1506.22 625.256 1505.33 625.184 1504.32 625.264C1503.33 625.344 1502.43 625.624 1501.63 626.104C1500.83 626.536 1500.18 627.088 1499.66 627.76C1499.17 628.432 1498.8 629.2 1498.56 630.064C1498.32 630.912 1498.2 631.832 1498.2 632.824V646H1492.39ZM1521.28 646.744C1519.36 646.744 1517.78 646.424 1516.53 645.784C1515.28 645.144 1514.29 644.328 1513.56 643.336C1512.82 642.344 1512.28 641.288 1511.92 640.168C1511.57 639.048 1511.34 637.992 1511.23 637C1511.13 635.992 1511.08 635.176 1511.08 634.552V620.08H1516.94V632.56C1516.94 633.36 1517 634.264 1517.11 635.272C1517.22 636.264 1517.48 637.224 1517.88 638.152C1518.29 639.064 1518.9 639.816 1519.7 640.408C1520.52 641 1521.61 641.296 1522.99 641.296C1523.72 641.296 1524.45 641.176 1525.17 640.936C1525.89 640.696 1526.54 640.288 1527.12 639.712C1527.71 639.12 1528.18 638.312 1528.53 637.288C1528.88 636.264 1529.06 634.968 1529.06 633.4L1532.49 634.864C1532.49 637.072 1532.06 639.072 1531.2 640.864C1530.35 642.656 1529.09 644.088 1527.43 645.16C1525.76 646.216 1523.72 646.744 1521.28 646.744ZM1529.76 646V637.96H1529.06V620.08H1534.87V646H1529.76ZM1542.57 646V640.072H1548.5V646H1542.57ZM1568.64 646.72C1566.12 646.72 1564 646.12 1562.28 644.92C1560.57 643.72 1559.28 642.088 1558.42 640.024C1557.56 637.944 1557.12 635.616 1557.12 633.04C1557.12 630.432 1557.56 628.096 1558.42 626.032C1559.28 623.968 1560.55 622.344 1562.21 621.16C1563.89 619.96 1565.96 619.36 1568.43 619.36C1570.88 619.36 1573 619.96 1574.79 621.16C1576.6 622.344 1578 623.968 1578.99 626.032C1579.98 628.08 1580.48 630.416 1580.48 633.04C1580.48 635.632 1579.99 637.96 1579.01 640.024C1578.04 642.088 1576.66 643.72 1574.88 644.92C1573.11 646.12 1571.03 646.72 1568.64 646.72ZM1556.14 657.52V620.08H1561.25V638.272H1561.97V657.52H1556.14ZM1567.76 641.536C1569.26 641.536 1570.5 641.16 1571.48 640.408C1572.45 639.656 1573.17 638.64 1573.64 637.36C1574.12 636.064 1574.36 634.624 1574.36 633.04C1574.36 631.472 1574.12 630.048 1573.64 628.768C1573.16 627.472 1572.41 626.448 1571.4 625.696C1570.4 624.928 1569.12 624.544 1567.56 624.544C1566.09 624.544 1564.89 624.904 1563.96 625.624C1563.04 626.328 1562.35 627.32 1561.9 628.6C1561.47 629.864 1561.25 631.344 1561.25 633.04C1561.25 634.72 1561.47 636.2 1561.9 637.48C1562.35 638.76 1563.04 639.76 1563.99 640.48C1564.95 641.184 1566.2 641.536 1567.76 641.536ZM1590.35 646L1582.43 620.032L1588.09 620.08L1593.16 636.712L1598.29 620.08H1603.16L1608.28 636.712L1613.36 620.08H1619.03L1611.11 646H1606.6L1600.72 628.168L1594.86 646H1590.35Z" fill="#2D2D2D"/>
<defs>
<clipPath id="clip0_1061_2307">
<rect width="1920" height="801" fill="white"/>
</clipPath>
</defs>
</svg>
