<svg width="32" height="33" viewBox="0 0 32 33" fill="none" xmlns="http://www.w3.org/2000/svg">
<path d="M25.0171 8.175C23.3309 7.3925 21.5279 6.82381 19.643 6.5C19.4115 6.91512 19.141 7.47346 18.9546 7.91762C16.9508 7.61874 14.9655 7.61874 12.9986 7.91762C12.8122 7.47346 12.5356 6.91512 12.302 6.5C10.4151 6.82381 8.61003 7.39459 6.92384 8.17914C3.52277 13.2767 2.6008 18.2476 3.06179 23.148C5.31755 24.8188 7.50366 25.8338 9.65287 26.4979C10.1835 25.7736 10.6568 25.0035 11.0645 24.192C10.288 23.8994 9.54429 23.5382 8.84156 23.1189C9.02799 22.982 9.21035 22.8387 9.38653 22.6914C13.6727 24.6798 18.3297 24.6798 22.5646 22.6914C22.7429 22.8387 22.9252 22.982 23.1096 23.1189C22.4048 23.5403 21.659 23.9014 20.8825 24.1941C21.2902 25.0035 21.7615 25.7757 22.2942 26.5C24.4455 25.8358 26.6336 24.8209 28.8894 23.148C29.4303 17.4672 27.9653 12.5419 25.0171 8.175ZM11.6484 20.1343C10.3618 20.1343 9.30662 18.9429 9.30662 17.4921C9.30662 16.0413 10.3392 14.8479 11.6484 14.8479C12.9577 14.8479 14.0128 16.0392 13.9903 17.4921C13.9923 18.9429 12.9577 20.1343 11.6484 20.1343ZM20.3027 20.1343C19.0161 20.1343 17.9609 18.9429 17.9609 17.4921C17.9609 16.0413 18.9935 14.8479 20.3027 14.8479C21.6119 14.8479 22.6671 16.0392 22.6445 17.4921C22.6445 18.9429 21.6119 20.1343 20.3027 20.1343Z" fill="#9DBAEE"/>
</svg>
