<svg width="27" height="21" viewBox="0 0 27 21" fill="none" xmlns="http://www.w3.org/2000/svg">
<path d="M22.0659 2.175C20.3797 1.3925 18.5767 0.823815 16.6918 0.5C16.4603 0.915119 16.1899 1.47346 16.0034 1.91762C13.9997 1.61874 12.0143 1.61874 10.0474 1.91762C9.86102 1.47346 9.58442 0.915119 9.35086 0.5C7.46388 0.823815 5.65886 1.39459 3.97267 2.17914C0.571602 7.27669 -0.35037 12.2476 0.110617 17.148C2.36638 18.8188 4.55249 19.8338 6.7017 20.4979C7.23236 19.7736 7.70563 19.0035 8.11334 18.192C7.33684 17.8994 6.59311 17.5382 5.89039 17.1189C6.07682 16.982 6.25918 16.8387 6.43536 16.6914C10.7215 18.6798 15.3785 18.6798 19.6134 16.6914C19.7917 16.8387 19.974 16.982 20.1584 17.1189C19.4536 17.5403 18.7079 17.9014 17.9314 18.1941C18.3391 19.0035 18.8103 19.7757 19.343 20.5C21.4943 19.8358 23.6824 18.8209 25.9382 17.148C26.4791 11.4672 25.0142 6.54194 22.0659 2.175ZM8.69727 14.1343C7.41061 14.1343 6.35544 12.9429 6.35544 11.4921C6.35544 10.0413 7.38808 8.84788 8.69727 8.84788C10.0065 8.84788 11.0616 10.0392 11.0391 11.4921C11.0411 12.9429 10.0065 14.1343 8.69727 14.1343ZM17.3515 14.1343C16.0649 14.1343 15.0097 12.9429 15.0097 11.4921C15.0097 10.0413 16.0423 8.84788 17.3515 8.84788C18.6607 8.84788 19.7159 10.0392 19.6934 11.4921C19.6934 12.9429 18.6607 14.1343 17.3515 14.1343Z" fill="#9DBAEE"/>
</svg>
