<svg width="1920" height="513" viewBox="0 0 1920 513" fill="none" xmlns="http://www.w3.org/2000/svg">
<g clip-path="url(#clip0_260_841)">
<path d="M54.5049 125.323L158.519 430.232L-157.546 367.857L54.5049 125.323Z" fill="#171717"/>
<path d="M176.249 45.1668L318.962 135.891L169.036 214.123L176.249 45.1668Z" fill="#171717"/>
<path d="M344.692 308.829L429.865 507.723L215.032 482.038L344.692 308.829Z" fill="#171717"/>
<path d="M1639.2 486.795L1657.95 254.315L1849.91 386.793L1639.2 486.795Z" fill="#171717"/>
<path d="M1782.74 256.712L2089.06 -169.622L2305.12 308.831L1782.74 256.712Z" fill="#171717"/>
<path d="M1535.25 504.963L1466.6 403.593L1588.71 394.822L1535.25 504.963Z" fill="#171717"/>
<path d="M1499.32 281.317L1500.05 124.679L1635.34 203.626L1499.32 281.317Z" fill="#171717"/>
<path d="M1226.73 355.063L1093.62 70.4549L1406.65 97.4867L1226.73 355.063Z" fill="#171717"/>
</g>
<defs>
<clipPath id="clip0_260_841">
<rect width="1920" height="513" fill="white"/>
</clipPath>
</defs>
</svg>
