<svg width="20" height="21" viewBox="0 0 20 21" fill="none" xmlns="http://www.w3.org/2000/svg">
<path d="M10 18C14.1421 18 17.5 14.6421 17.5 10.5C17.5 6.35786 14.1421 3 10 3C5.85786 3 2.5 6.35786 2.5 10.5C2.5 14.6421 5.85786 18 10 18Z" stroke="#9DBAEE" stroke-width="1.25" stroke-miterlimit="10"/>
<path d="M10 13C11.7259 13 13.125 11.6009 13.125 9.875C13.125 8.14911 11.7259 6.75 10 6.75C8.27411 6.75 6.875 8.14911 6.875 9.875C6.875 11.6009 8.27411 13 10 13Z" stroke="#9DBAEE" stroke-width="1.25" stroke-miterlimit="10"/>
<path d="M4.98438 16.0761C5.45516 15.1505 6.17291 14.3732 7.05815 13.8303C7.94339 13.2874 8.9616 13 10.0001 13C11.0385 13 12.0567 13.2874 12.942 13.8303C13.8272 14.3732 14.545 15.1505 15.0158 16.0761" stroke="#9DBAEE" stroke-width="1.25" stroke-linecap="round" stroke-linejoin="round"/>
</svg>
