<svg width="84" height="84" viewBox="0 0 84 84" fill="none" xmlns="http://www.w3.org/2000/svg">
<g clip-path="url(#clip0_928_1692)">
<path d="M36.8606 76.5105C55.9202 76.5105 71.3711 61.0596 71.3711 42C71.3711 22.9404 55.9202 7.48949 36.8606 7.48949C17.801 7.48949 2.3501 22.9404 2.3501 42C2.3501 61.0596 17.801 76.5105 36.8606 76.5105Z" fill="url(#paint0_linear_928_1692)"/>
<g filter="url(#filter0_d_928_1692)">
<path d="M58.8148 23.3497C63.0728 23.3497 66.5246 19.8979 66.5246 15.6399C66.5246 11.3819 63.0728 7.93013 58.8148 7.93013C54.5568 7.93013 51.105 11.3819 51.105 15.6399C51.105 19.8979 54.5568 23.3497 58.8148 23.3497Z" fill="#FBB4DF"/>
</g>
<path d="M20.0455 30.3986L30.029 47.6905H10.062L20.0455 30.3986Z" fill="black" fill-opacity="0.05"/>
<path d="M56.5381 52.2797L61.2437 60.43H51.8325L56.5381 52.2797Z" fill="black" fill-opacity="0.1"/>
<path d="M33.7759 12.4826L38.4815 20.6329H29.0703L33.7759 12.4826Z" fill="black" fill-opacity="0.15"/>
<g filter="url(#filter1_d_928_1692)">
<path d="M20.8886 45.0074C20.8886 46.4525 20.2366 47.6684 18.9326 48.6553C17.6285 49.6245 16.1306 50.1091 14.4389 50.1091C12.7647 50.1091 11.3814 49.6774 10.2888 48.8139C9.1962 47.9328 8.6499 47.1045 8.6499 46.3291C8.6499 45.8004 8.8085 45.5361 9.12571 45.5361C9.40766 45.5361 9.96277 45.959 10.791 46.8049C11.1082 47.1045 11.5312 47.3865 12.0598 47.6508C12.6061 47.9151 13.1789 48.0473 13.778 48.0473C15.0116 48.0473 16.1042 47.7301 17.0558 47.0957C18.025 46.4613 18.5096 45.774 18.5096 45.0339C18.5096 44.5581 18.1924 43.9501 17.558 43.21C16.9236 42.4698 16.2187 41.7737 15.4433 41.1217C14.6856 40.4521 13.9895 39.7383 13.3551 38.9806C12.7207 38.2228 12.4035 37.6237 12.4035 37.1831C12.4035 36.7425 12.4916 36.2755 12.6678 35.7821C12.844 35.2887 13.0379 34.9274 13.2493 34.6983C13.9366 33.9406 15.0028 33.2445 16.4478 32.6101C17.9105 31.9757 19.1352 31.6585 20.1221 31.6585C20.6331 31.6585 21.0649 31.8259 21.4173 32.1607C21.7698 32.4955 21.946 32.848 21.946 33.2181C21.946 33.3943 21.761 33.5353 21.3909 33.641C21.0208 33.7467 20.4569 33.8877 19.6991 34.0639C18.959 34.2225 18.2982 34.4164 17.7166 34.6455C15.69 35.4209 14.6768 36.1698 14.6768 36.8923C14.6768 37.28 15.7077 38.3638 17.7695 40.1437C18.5625 40.8309 19.2762 41.6328 19.9106 42.5491C20.5626 43.4479 20.8886 44.2673 20.8886 45.0074ZM30.4113 37.1567C31.2043 37.1567 31.9357 37.562 32.6053 38.3726C33.275 39.1656 33.6098 39.8881 33.6098 40.5402C33.6098 41.1746 33.3895 41.8266 32.949 42.4962C33.1604 42.7606 33.2662 42.9897 33.2662 43.1835C33.2662 43.6769 33.1516 44.5228 32.9225 45.7211C32.7111 46.9195 32.5789 47.7037 32.526 48.0737C32.4908 48.4438 32.4555 48.7434 32.4203 48.9725C32.385 49.1839 32.341 49.3954 32.2881 49.6069C32.2176 50.0474 32.059 50.2677 31.8123 50.2677C31.4951 50.2677 31.2308 49.9946 31.0193 49.4483C30.8255 48.8844 30.7109 48.1618 30.6757 47.2807C29.1073 49.2721 27.6534 50.2677 26.3141 50.2677C25.5035 50.2677 24.7017 49.9241 23.9087 49.2368C23.1333 48.5319 22.7456 47.8094 22.7456 47.0693C22.7456 46.0119 23.1333 44.7079 23.9087 43.1571C24.6841 41.5887 25.6885 40.1965 26.9221 38.9806C28.1557 37.7646 29.3187 37.1567 30.4113 37.1567ZM31.6273 41.809C31.6273 40.1701 31.3013 39.3507 30.6492 39.3507C29.962 39.3507 29.1601 39.8441 28.2438 40.8309C27.3274 41.8002 26.552 42.9016 25.9176 44.1351C25.2832 45.3687 24.966 46.3467 24.966 47.0693C24.966 47.3688 25.0894 47.6155 25.3361 47.8094C25.5828 47.9856 25.8736 48.0737 26.2084 48.0737C27.0366 48.0737 27.9706 47.5186 29.0104 46.4084C30.0501 45.2806 30.7726 43.9148 31.1779 42.3112C31.2308 42.0469 31.3806 41.8883 31.6273 41.8354V41.809ZM47.4544 38.5841C47.4544 38.7427 46.6702 39.5709 45.1018 41.0688C44.5203 41.6328 43.9828 42.3024 43.4893 43.0778C43.0135 43.8355 42.7756 44.5316 42.7756 45.166C42.7756 45.8004 42.9607 46.3908 43.3307 46.9371C43.7184 47.4658 44.1326 47.8711 44.5731 48.153C45.0313 48.4174 45.4454 48.6817 45.8155 48.946C46.2032 49.2104 46.397 49.4307 46.397 49.6069C46.397 50.0474 46.0446 50.2677 45.3397 50.2677C44.6524 50.2677 43.8242 49.88 42.8549 49.1046C41.9033 48.3116 41.313 47.4305 41.0839 46.4613C40.9958 46.2851 40.9253 46.1176 40.8724 45.959C39.6741 47.5803 38.8018 48.7081 38.2555 49.3425C37.7268 49.9593 37.3303 50.2677 37.066 50.2677C36.8017 50.2677 36.5109 50.0651 36.1937 49.6597C35.8765 49.2368 35.7179 48.8932 35.7179 48.6288C35.7179 48.3469 35.9998 47.2102 36.5637 45.2189C37.1453 43.21 37.718 40.8045 38.2819 38.0025C38.8635 35.2006 39.1542 32.6982 39.1542 30.4954C39.1542 30.2135 39.1895 30.0196 39.26 29.9139C39.3481 29.8081 39.5243 29.7553 39.7886 29.7553C40.053 29.7553 40.379 30.0196 40.7667 30.5483C41.1544 31.0593 41.3482 31.5616 41.3482 32.055C41.3482 33.6234 41.031 35.8174 40.3966 38.6369C39.7622 41.4565 39.0044 44.1351 38.1233 46.6728C40.1147 43.8356 41.8328 41.5446 43.2779 39.8C44.7405 38.0378 45.6393 37.1567 45.9741 37.1567C46.3265 37.1567 46.6614 37.3241 46.9786 37.6589C47.2958 37.9937 47.4544 38.3021 47.4544 38.5841ZM57.519 37.8968C57.5894 37.6148 57.6599 37.421 57.7304 37.3153C57.8009 37.2095 57.9507 37.1567 58.1798 37.1567C58.4265 37.1567 58.7173 37.3858 59.0521 37.8439C59.4046 38.3021 59.5808 38.7427 59.5808 39.1656C59.5808 39.3947 59.1931 40.7516 58.4177 43.2364C57.6423 45.7211 57.0432 47.6948 56.6202 49.1575C56.4087 49.8976 56.1092 50.2677 55.7215 50.2677C55.4924 50.2677 55.2985 50.1708 55.1399 49.9769C54.9813 49.7831 54.902 49.4307 54.902 48.9196C54.902 48.4086 55.1047 47.4834 55.51 46.1441C54.7699 47.3424 53.968 48.3293 53.1046 49.1046C52.2411 49.88 51.4481 50.2677 50.7255 50.2677C50.0206 50.2677 49.351 49.9329 48.7166 49.2632C48.0822 48.5936 47.765 47.9063 47.765 47.2014C47.765 45.5273 48.2496 43.439 49.2188 40.9367C50.2057 38.4167 51.0251 37.1567 51.6771 37.1567C51.9943 37.1567 52.2675 37.3065 52.4966 37.606C52.7433 37.888 52.8666 38.214 52.8666 38.5841C52.8666 38.7427 52.6287 39.3154 52.1529 40.3023C51.6771 41.2715 51.2013 42.4169 50.7255 43.7386C50.2497 45.0427 50.0118 46.1881 50.0118 47.175C50.0118 47.4569 50.0999 47.6949 50.2762 47.8887C50.4524 48.0649 50.6639 48.153 50.9106 48.153C51.5802 48.153 52.3732 47.5627 53.2896 46.382C54.2236 45.2013 55.0695 43.8267 55.8272 42.2583C56.585 40.69 57.1489 39.2361 57.519 37.8968ZM62.4738 40.3816L62.3945 38.399C62.3945 37.5708 62.5883 37.1567 62.976 37.1567C63.3108 37.1567 63.6281 37.3769 63.9276 37.8175C64.2448 38.2404 64.4034 38.7515 64.4034 39.3507C64.4034 39.9322 64.3858 40.3728 64.3506 40.6723C65.8837 38.3462 67.3376 37.1831 68.7121 37.1831C69.5756 37.1831 70.0074 37.3946 70.0074 37.8175C70.0074 38.029 69.9104 38.2228 69.7166 38.399C69.5227 38.5753 69.2143 38.7779 68.7914 39.007C67.8574 39.4123 67.0644 40.0379 66.4124 40.8838C65.778 41.7121 65.2581 42.6549 64.8528 43.7122C64.4475 44.7695 64.1215 45.6595 63.8748 46.382C63.6457 47.1045 63.4695 47.6684 63.3461 48.0737C63.2227 48.479 63.0818 48.8755 62.9232 49.2632C62.6412 49.9681 62.3152 50.3206 61.9451 50.3206C61.6455 50.3206 61.3988 50.1532 61.205 49.8183C61.0287 49.4659 60.9406 49.1311 60.9406 48.8139C60.9406 48.479 61.0904 47.827 61.39 46.8578C62.1125 44.6374 62.4738 42.4786 62.4738 40.3816ZM78.9962 37.8968C79.0667 37.6148 79.1372 37.421 79.2077 37.3153C79.2782 37.2095 79.428 37.1567 79.6571 37.1567C79.9038 37.1567 80.1945 37.3858 80.5294 37.8439C80.8818 38.3021 81.0581 38.7427 81.0581 39.1656C81.0581 39.3947 80.6704 40.7516 79.895 43.2364C79.1196 45.7211 78.5204 47.6948 78.0975 49.1575C77.886 49.8976 77.5864 50.2677 77.1988 50.2677C76.9697 50.2677 76.7758 50.1708 76.6172 49.9769C76.4586 49.7831 76.3793 49.4307 76.3793 48.9196C76.3793 48.4086 76.582 47.4834 76.9873 46.1441C76.2471 47.3424 75.4453 48.3293 74.5818 49.1046C73.7183 49.88 72.9253 50.2677 72.2028 50.2677C71.4979 50.2677 70.8283 49.9329 70.1939 49.2632C69.5594 48.5936 69.2422 47.9063 69.2422 47.2014C69.2422 45.5273 69.7269 43.439 70.6961 40.9367C71.6829 38.4167 72.5024 37.1567 73.1544 37.1567C73.4716 37.1567 73.7448 37.3065 73.9739 37.606C74.2206 37.888 74.3439 38.214 74.3439 38.5841C74.3439 38.7427 74.106 39.3154 73.6302 40.3023C73.1544 41.2715 72.6786 42.4169 72.2028 43.7386C71.727 45.0427 71.4891 46.1881 71.4891 47.175C71.4891 47.4569 71.5772 47.6949 71.7534 47.8887C71.9297 48.0649 72.1411 48.153 72.3878 48.153C73.0575 48.153 73.8505 47.5627 74.7669 46.382C75.7009 45.2013 76.5467 43.8267 77.3045 42.2583C78.0622 40.69 78.6262 39.2361 78.9962 37.8968Z" fill="#EFCBE1"/>
</g>
</g>
<defs>
<filter id="filter0_d_928_1692" x="46.4383" y="5.5968" width="24.7528" height="24.7529" filterUnits="userSpaceOnUse" color-interpolation-filters="sRGB">
<feFlood flood-opacity="0" result="BackgroundImageFix"/>
<feColorMatrix in="SourceAlpha" type="matrix" values="0 0 0 0 0 0 0 0 0 0 0 0 0 0 0 0 0 0 127 0" result="hardAlpha"/>
<feOffset dy="2.33333"/>
<feGaussianBlur stdDeviation="2.33333"/>
<feColorMatrix type="matrix" values="0 0 0 0 0 0 0 0 0 0 0 0 0 0 0 0 0 0 0.25 0"/>
<feBlend mode="normal" in2="BackgroundImageFix" result="effect1_dropShadow_928_1692"/>
<feBlend mode="normal" in="SourceGraphic" in2="effect1_dropShadow_928_1692" result="shape"/>
</filter>
<filter id="filter1_d_928_1692" x="3.98324" y="26.2553" width="81.7415" height="29.8987" filterUnits="userSpaceOnUse" color-interpolation-filters="sRGB">
<feFlood flood-opacity="0" result="BackgroundImageFix"/>
<feColorMatrix in="SourceAlpha" type="matrix" values="0 0 0 0 0 0 0 0 0 0 0 0 0 0 0 0 0 0 127 0" result="hardAlpha"/>
<feOffset dy="1.16667"/>
<feGaussianBlur stdDeviation="2.33333"/>
<feColorMatrix type="matrix" values="0 0 0 0 0 0 0 0 0 0 0 0 0 0 0 0 0 0 0.25 0"/>
<feBlend mode="normal" in2="BackgroundImageFix" result="effect1_dropShadow_928_1692"/>
<feBlend mode="normal" in="SourceGraphic" in2="effect1_dropShadow_928_1692" result="shape"/>
</filter>
<linearGradient id="paint0_linear_928_1692" x1="4.55289" y1="29.3706" x2="105.955" y2="64.2482" gradientUnits="userSpaceOnUse">
<stop stop-color="#BF0E78"/>
<stop offset="0.600704" stop-color="#7F1153"/>
<stop offset="1" stop-color="#BF0E78" stop-opacity="0"/>
</linearGradient>
<clipPath id="clip0_928_1692">
<rect width="84" height="84" fill="white"/>
</clipPath>
</defs>
</svg>
