<svg width="32" height="33" viewBox="0 0 32 33" fill="none" xmlns="http://www.w3.org/2000/svg">
<path d="M14.9992 13.8031L11.7492 8.17398C11.4183 7.5998 11.329 6.91776 11.5007 6.27773C11.6725 5.6377 12.0914 5.09206 12.6653 4.76072C13.2392 4.42938 13.9212 4.33946 14.5613 4.5107C15.2015 4.68195 15.7475 5.10036 16.0793 5.67398L21.0793 14.3342" stroke="#9DBAEE" stroke-width="2" stroke-linecap="round" stroke-linejoin="round"/>
<path d="M11.169 17.1685L6.41899 8.94126C6.25451 8.65693 6.14768 8.34297 6.1046 8.01732C6.06152 7.69168 6.08304 7.36074 6.16792 7.04342C6.25281 6.72609 6.39939 6.42861 6.59931 6.16796C6.79922 5.90732 7.04853 5.68863 7.33301 5.52439C7.61748 5.36015 7.93153 5.25358 8.25721 5.21077C8.58289 5.16797 8.91381 5.18976 9.23106 5.27491C9.54832 5.36006 9.84568 5.50689 10.1062 5.70702C10.3666 5.90715 10.5851 6.15665 10.7491 6.44126L14.9991 13.8025" stroke="#9DBAEE" stroke-width="2" stroke-linecap="round" stroke-linejoin="round"/>
<path d="M19.2493 21.163C18.5862 20.0146 18.4066 18.6498 18.7498 17.3689C19.093 16.088 19.931 14.9959 21.0794 14.3329L19.8294 12.1678C19.6649 11.8835 19.5581 11.5695 19.515 11.2439C19.4719 10.9182 19.4935 10.5873 19.5783 10.27C19.6632 9.95266 19.8098 9.65517 20.0097 9.39453C20.2096 9.13388 20.459 8.91519 20.7434 8.75095C21.0279 8.58671 21.3419 8.48014 21.6676 8.43734C21.9933 8.39453 22.3242 8.41632 22.6415 8.50147C22.9587 8.58662 23.2561 8.73346 23.5166 8.93359C23.777 9.13372 23.9955 9.38322 24.1595 9.66783L26.6595 13.998C27.3165 15.1352 27.743 16.3908 27.9146 17.693C28.0863 18.9951 27.9997 20.3183 27.6599 21.587C27.3201 22.8557 26.7338 24.045 25.9343 25.0871C25.1348 26.1291 24.1378 27.0034 23.0004 27.6601C21.863 28.3168 20.6073 28.743 19.3051 28.9144C18.0029 29.0858 16.6797 28.9989 15.4111 28.6589C14.1425 28.3188 12.9533 27.7321 11.9115 26.9324C10.8696 26.1327 9.99547 25.1355 9.33903 23.998L4.58903 15.7707C4.25817 15.1965 4.16881 14.5145 4.34059 13.8745C4.51237 13.2344 4.93124 12.6888 5.50513 12.3575C6.07903 12.0261 6.761 11.9362 7.40117 12.1074C8.04134 12.2787 8.58733 12.6971 8.91915 13.2707L11.1691 17.1678" stroke="#9DBAEE" stroke-width="2" stroke-linecap="round" stroke-linejoin="round"/>
<path d="M10.1368 30.4996C8.44183 29.3235 7.02895 27.7861 6 25.998" stroke="#9DBAEE" stroke-width="2" stroke-linecap="round" stroke-linejoin="round"/>
<path d="M22 4.375C23.141 4.37485 24.2618 4.67519 25.2498 5.24581C26.2379 5.81643 27.0582 6.6372 27.6282 7.62554" stroke="#9DBAEE" stroke-width="2" stroke-linecap="round" stroke-linejoin="round"/>
</svg>
