<svg width="50" height="50" viewBox="0 0 50 50" fill="none" xmlns="http://www.w3.org/2000/svg">
<circle cx="25" cy="25" r="25" fill="#A5D8F4"/>
<circle cx="25" cy="25" r="15" fill="white"/>
<path d="M25.147 19.151C24.277 19.151 23.639 18.9577 23.233 18.571C22.8463 18.165 22.653 17.6527 22.653 17.034V16.396C22.653 15.7773 22.8463 15.2747 23.233 14.888C23.639 14.482 24.277 14.279 25.147 14.279C26.017 14.279 26.6453 14.482 27.032 14.888C27.438 15.2747 27.641 15.7773 27.641 16.396V17.034C27.641 17.6527 27.438 18.165 27.032 18.571C26.6453 18.9577 26.017 19.151 25.147 19.151ZM23.001 20.775H27.293V36H23.001V20.775Z" fill="#8AC6E8"/>
</svg>
