<svg width="50" height="50" viewBox="0 0 50 50" fill="none" xmlns="http://www.w3.org/2000/svg">
<circle cx="25" cy="25" r="25" fill="#FBEF88"/>
<circle cx="25" cy="25" r="15" fill="white"/>
<path d="M23.77 28.62L22.407 20.384V14.758H26.931V20.384L25.597 28.62H23.77ZM24.64 35.348C23.712 35.348 23.045 35.1353 22.639 34.71C22.2523 34.2847 22.059 33.7627 22.059 33.144V32.448C22.059 31.8293 22.2523 31.3073 22.639 30.882C23.045 30.4567 23.712 30.244 24.64 30.244C25.568 30.244 26.2253 30.4567 26.612 30.882C27.018 31.3073 27.221 31.8293 27.221 32.448V33.144C27.221 33.7627 27.018 34.2847 26.612 34.71C26.2253 35.1353 25.568 35.348 24.64 35.348Z" fill="#ECDBAB"/>
</svg>
