<svg width="287" height="249" viewBox="0 0 287 249" fill="none" xmlns="http://www.w3.org/2000/svg">
<path d="M207.082 248.251C187.992 243.271 173.675 232.481 164.13 215.881C154.585 198.866 149.812 179.361 149.812 157.366C149.812 120.016 161.64 88.0607 185.295 61.5006C209.365 34.5255 237.585 14.1905 269.955 0.495404L286.14 27.8855V34.1105C275.35 37.8456 264.767 44.9006 254.392 55.2756C244.432 65.6506 236.34 78.1007 230.115 92.6258C223.89 106.736 220.777 121.053 220.777 135.578C220.777 149.273 223.682 160.686 229.492 169.816C235.302 178.946 243.395 184.341 253.77 186.001L252.525 197.206L207.082 248.251ZM57.6817 248.251C38.5916 243.271 24.274 232.481 14.729 215.881C5.18397 198.866 0.411448 179.361 0.411448 157.366C0.411448 120.016 12.239 88.0607 35.8941 61.5006C59.9642 34.5255 88.1843 14.1905 120.554 0.495404L136.739 27.8855V34.1105C125.949 37.8456 115.367 44.9006 104.992 55.2756C95.0318 65.6506 86.9393 78.1007 80.7143 92.6258C74.4892 106.736 71.3767 121.053 71.3767 135.578C71.3767 149.273 74.2817 160.686 80.0918 169.816C85.9018 178.946 93.9943 184.341 104.369 186.001L103.124 197.206L57.6817 248.251Z" fill="#2F4771"/>
</svg>
