<svg width="20" height="21" viewBox="0 0 20 21" fill="none" xmlns="http://www.w3.org/2000/svg">
<path d="M16.875 3.625H3.125C2.7936 3.62538 2.47587 3.7572 2.24154 3.99154C2.0072 4.22587 1.87538 4.5436 1.875 4.875V16.125C1.87538 16.4564 2.0072 16.7741 2.24154 17.0085C2.47587 17.2428 2.7936 17.3746 3.125 17.375H16.875C17.2064 17.3746 17.5241 17.2428 17.7585 17.0085C17.9928 16.7741 18.1246 16.4564 18.125 16.125V4.875C18.1246 4.5436 17.9928 4.22587 17.7585 3.99154C17.5241 3.7572 17.2064 3.62538 16.875 3.625ZM14.0625 13.625H5.9375C5.77174 13.625 5.61277 13.5592 5.49556 13.4419C5.37835 13.3247 5.3125 13.1658 5.3125 13C5.3125 12.8342 5.37835 12.6753 5.49556 12.5581C5.61277 12.4408 5.77174 12.375 5.9375 12.375H14.0625C14.2283 12.375 14.3872 12.4408 14.5044 12.5581C14.6217 12.6753 14.6875 12.8342 14.6875 13C14.6875 13.1658 14.6217 13.3247 14.5044 13.4419C14.3872 13.5592 14.2283 13.625 14.0625 13.625ZM14.0625 11.125H5.9375C5.77174 11.125 5.61277 11.0592 5.49556 10.9419C5.37835 10.8247 5.3125 10.6658 5.3125 10.5C5.3125 10.3342 5.37835 10.1753 5.49556 10.0581C5.61277 9.94085 5.77174 9.875 5.9375 9.875H14.0625C14.2283 9.875 14.3872 9.94085 14.5044 10.0581C14.6217 10.1753 14.6875 10.3342 14.6875 10.5C14.6875 10.6658 14.6217 10.8247 14.5044 10.9419C14.3872 11.0592 14.2283 11.125 14.0625 11.125ZM14.0625 8.625H5.9375C5.77174 8.625 5.61277 8.55915 5.49556 8.44194C5.37835 8.32473 5.3125 8.16576 5.3125 8C5.3125 7.83424 5.37835 7.67527 5.49556 7.55806C5.61277 7.44085 5.77174 7.375 5.9375 7.375H14.0625C14.2283 7.375 14.3872 7.44085 14.5044 7.55806C14.6217 7.67527 14.6875 7.83424 14.6875 8C14.6875 8.16576 14.6217 8.32473 14.5044 8.44194C14.3872 8.55915 14.2283 8.625 14.0625 8.625Z" fill="white"/>
</svg>
